<svg width="204" height="45" viewBox="0 0 204 45" fill="none" xmlns="http://www.w3.org/2000/svg">
<path d="M196.523 24.3202C196.45 23.1829 196.402 22.0455 196.377 20.9081C196.353 19.7465 196.353 18.585 196.377 17.4234C195.385 17.5928 194.417 17.9074 193.473 18.3672C192.554 18.8028 191.792 19.3957 191.187 20.1458C190.582 20.896 190.279 21.8519 190.279 23.0135C190.279 23.4975 190.34 24.0177 190.461 24.5743C190.606 25.1309 190.848 25.6028 191.187 25.99C191.55 26.353 192.034 26.5345 192.639 26.5345C193.074 26.5345 193.534 26.4135 194.018 26.1715C194.502 25.9053 194.962 25.6028 195.397 25.264C195.857 24.9252 196.232 24.6106 196.523 24.3202ZM204 26.4619C204 26.5587 203.952 26.6676 203.855 26.7886C203.782 26.9096 203.71 27.0064 203.637 27.079C202.887 27.9502 201.919 28.3858 200.733 28.3858C199.693 28.3858 198.858 28.1559 198.229 27.6961C197.599 27.2363 197.115 26.5224 196.777 25.5544C196.002 26.3772 195.167 27.0306 194.272 27.5146C193.401 27.9986 192.372 28.2406 191.187 28.2406C190.34 28.2406 189.481 28.0591 188.609 27.6961C187.762 27.3089 187.048 26.7644 186.468 26.0626C185.911 25.3608 185.633 24.5501 185.633 23.6306C185.633 22.711 185.863 21.9003 186.322 21.1985C186.806 20.4725 187.411 19.8554 188.137 19.3473C188.863 18.8149 189.602 18.3793 190.352 18.0405C191.32 17.6291 192.312 17.3145 193.328 17.0967C194.345 16.8547 195.361 16.6127 196.377 16.3707V16.2255C196.377 15.7899 196.365 15.2091 196.341 14.4832C196.341 13.733 196.268 12.9949 196.123 12.2689C195.978 11.5187 195.736 10.8895 195.397 10.3813C195.059 9.84896 194.562 9.58276 193.909 9.58276C193.159 9.58276 192.481 9.80056 191.876 10.2361C191.295 10.6717 190.884 11.2525 190.642 11.9785C190.594 12.1963 190.557 12.4141 190.533 12.6319C190.509 12.8255 190.473 13.0312 190.424 13.249C190.376 13.6362 190.146 13.9024 189.735 14.0476C189.347 14.1686 188.984 14.2291 188.646 14.2291C188.234 14.2291 187.835 14.1444 187.448 13.975C187.061 13.7814 186.867 13.4305 186.867 12.9223C186.867 12.7287 186.891 12.5593 186.94 12.4141C187.012 12.2447 187.085 12.0753 187.157 11.9059C187.545 10.9863 188.125 10.3087 188.9 9.87316C189.674 9.43757 190.521 9.14717 191.441 9.00198C192.384 8.85678 193.28 8.78418 194.127 8.78418C196.111 8.78418 197.745 9.31657 199.027 10.3813C200.31 11.4461 200.951 13.0191 200.951 15.1002V20.5814C200.927 21.259 200.915 21.9608 200.915 22.6868C200.939 23.3886 200.975 24.0903 201.024 24.7921C201.072 25.2035 201.169 25.6028 201.314 25.99C201.459 26.353 201.786 26.5345 202.294 26.5345C202.633 26.5345 202.911 26.4619 203.129 26.3167C203.371 26.1715 203.589 26.0989 203.782 26.0989C203.879 26.0989 203.94 26.1473 203.964 26.2441C203.988 26.3409 204 26.4135 204 26.4619Z" fill="#F5F5F5"/>
<path d="M184.771 27.7326C184.771 28.1198 184.577 28.3134 184.19 28.3134C183.488 28.3134 182.774 28.2771 182.048 28.2045C181.322 28.1561 180.596 28.1319 179.87 28.1319C179.144 28.1319 178.406 28.1561 177.656 28.2045C176.93 28.2771 176.204 28.3134 175.478 28.3134C175.309 28.3134 175.188 28.2529 175.115 28.1319C175.042 27.9867 175.006 27.8536 175.006 27.7326C175.006 27.3454 175.188 27.1518 175.551 27.1518C175.793 27.1518 176.022 27.1639 176.24 27.1881C176.458 27.2123 176.676 27.2244 176.894 27.2244C177.184 27.2244 177.366 27.1276 177.438 26.934C177.535 26.7404 177.583 26.5226 177.583 26.2806V11.8698C177.583 11.6278 177.559 11.3617 177.511 11.0713C177.462 10.7567 177.269 10.5994 176.93 10.5994C176.615 10.5994 176.289 10.6236 175.95 10.672C175.611 10.7204 175.272 10.7446 174.933 10.7446C174.788 10.7446 174.643 10.7083 174.498 10.6357C174.377 10.5631 174.316 10.4421 174.316 10.2727C174.316 9.95808 174.474 9.75239 174.788 9.65559C175.054 9.60719 175.333 9.57089 175.623 9.54669C175.938 9.49829 176.228 9.462 176.494 9.4378C177.341 9.3168 178.164 9.1716 178.963 9.00221C179.785 8.80861 180.608 8.61501 181.431 8.42142C181.504 8.42142 181.576 8.42142 181.649 8.42142C181.721 8.39722 181.782 8.38512 181.83 8.38512C182.193 8.38512 182.375 8.53032 182.375 8.82071C182.375 11.7246 182.363 14.6407 182.339 17.5688C182.314 20.4728 182.302 23.3767 182.302 26.2806C182.302 26.7162 182.399 26.9945 182.593 27.1155C182.786 27.2123 183.028 27.2486 183.319 27.2244C183.633 27.2002 183.948 27.1881 184.262 27.1881C184.601 27.1881 184.771 27.3696 184.771 27.7326ZM182.484 2.79504C182.484 3.54522 182.205 4.19861 181.649 4.7552C181.116 5.31178 180.463 5.59008 179.689 5.59008C178.939 5.59008 178.285 5.31178 177.729 4.7552C177.172 4.19861 176.894 3.54522 176.894 2.79504C176.894 2.02066 177.172 1.36727 177.729 0.834882C178.285 0.278294 178.939 0 179.689 0C180.463 0 181.116 0.278294 181.649 0.834882C182.205 1.36727 182.484 2.02066 182.484 2.79504Z" fill="#F5F5F5"/>
<path d="M174.128 27.5147C174.128 28.0229 173.923 28.2769 173.511 28.2769C172.64 28.2769 171.769 28.2648 170.898 28.2406C170.051 28.2164 169.204 28.2043 168.357 28.2043C167.534 28.2043 166.711 28.2164 165.888 28.2406C165.066 28.289 164.243 28.3132 163.42 28.3132C163.178 28.3132 163.009 28.2406 162.912 28.0954C162.815 27.9261 162.767 27.7446 162.767 27.551C162.767 27.3574 162.839 27.2122 162.984 27.1154C163.154 26.9944 163.323 26.9339 163.493 26.9339C163.71 26.9339 163.928 26.946 164.146 26.9702C164.364 26.9944 164.582 27.0065 164.799 27.0065C164.848 27.0065 164.908 27.0065 164.981 27.0065C165.054 27.0065 165.114 27.0065 165.162 27.0065C165.574 26.9581 165.792 26.7282 165.816 26.3168C165.864 25.8812 165.888 25.5182 165.888 25.2278V6.35222C164.509 9.78855 163.105 13.2128 161.678 16.6249C160.274 20.0128 158.895 23.437 157.54 26.8976H154.708C153.329 23.3161 151.901 19.7587 150.425 16.2256C148.973 12.6925 147.545 9.13516 146.142 5.55364C146.142 8.86897 146.166 12.1843 146.214 15.4996C146.263 18.7908 146.287 22.094 146.287 25.4093C146.287 25.6997 146.299 26.0506 146.323 26.462C146.372 26.8492 146.601 27.0428 147.013 27.0428C147.327 27.0428 147.63 27.0307 147.92 27.0065C148.211 26.9823 148.513 26.9702 148.828 26.9702C148.997 26.9702 149.142 27.0428 149.263 27.188C149.384 27.309 149.445 27.4542 149.445 27.6236C149.445 27.7446 149.396 27.8898 149.3 28.0591C149.203 28.2043 149.082 28.2769 148.937 28.2769C148.501 28.2769 148.065 28.2648 147.63 28.2406C147.194 28.2164 146.759 28.2043 146.323 28.2043C145.549 28.2043 144.762 28.2164 143.964 28.2406C143.165 28.2648 142.379 28.2769 141.604 28.2769C141.362 28.2769 141.205 28.2164 141.132 28.0954C141.06 27.9503 141.023 27.7688 141.023 27.551C141.023 27.3574 141.096 27.2122 141.241 27.1154C141.411 27.0186 141.568 26.9702 141.713 26.9702C141.931 26.9702 142.149 26.9823 142.367 27.0065C142.608 27.0307 142.838 27.0428 143.056 27.0428C143.468 27.0428 143.758 26.9944 143.927 26.8976C144.121 26.7766 144.218 26.4862 144.218 26.0264C144.218 22.3481 144.23 18.6698 144.254 14.9914C144.302 11.2889 144.327 7.59849 144.327 3.92017C144.327 3.53298 144.254 3.25469 144.109 3.08529C143.988 2.8917 143.722 2.7949 143.31 2.7949C143.068 2.7949 142.826 2.807 142.584 2.8312C142.342 2.8554 142.1 2.8675 141.858 2.8675C141.665 2.8675 141.495 2.7949 141.35 2.6497C141.205 2.5045 141.132 2.33511 141.132 2.14151C141.132 1.68172 141.374 1.45183 141.858 1.45183C142.439 1.45183 143.02 1.46393 143.601 1.48813C144.206 1.51233 144.799 1.52443 145.379 1.52443C146.081 1.52443 146.783 1.52443 147.485 1.52443C148.211 1.52443 148.925 1.48813 149.626 1.41553L157.721 21.4527C159.028 18.1374 160.395 14.8462 161.823 11.5793C163.275 8.28818 164.545 4.93655 165.634 1.52443C166.191 1.54862 166.747 1.57282 167.304 1.59702C167.885 1.59702 168.466 1.59702 169.046 1.59702C169.797 1.59702 170.547 1.57282 171.297 1.52443C172.071 1.47603 172.834 1.45183 173.584 1.45183C173.777 1.45183 173.911 1.53652 173.983 1.70592C174.056 1.85112 174.092 1.99632 174.092 2.14151C174.092 2.28671 174.056 2.45611 173.983 2.6497C173.911 2.8191 173.777 2.9038 173.584 2.9038C173.245 2.9038 172.894 2.9038 172.531 2.9038C172.192 2.8796 171.854 2.8675 171.515 2.8675C171.273 2.8675 171.091 2.97639 170.97 3.19419C170.873 3.38779 170.825 3.59348 170.825 3.81128C170.825 5.21485 170.813 6.64261 170.789 8.09458C170.789 9.52235 170.789 10.9501 170.789 12.3779C170.789 14.5074 170.789 16.637 170.789 18.7666C170.813 20.8961 170.825 23.0257 170.825 25.1552C170.825 25.373 170.837 25.6271 170.861 25.9175C170.91 26.2079 170.994 26.4741 171.115 26.7161C171.261 26.9339 171.478 27.0428 171.769 27.0428C172.059 27.0428 172.35 27.0307 172.64 27.0065C172.93 26.9823 173.233 26.9702 173.548 26.9702C173.693 26.9702 173.826 27.0186 173.947 27.1154C174.068 27.2122 174.128 27.3453 174.128 27.5147Z" fill="#F5F5F5"/>
<path d="M126.648 24.3202C126.575 23.1829 126.527 22.0455 126.502 20.9081C126.478 19.7465 126.478 18.585 126.502 17.4234C125.51 17.5928 124.542 17.9074 123.598 18.3672C122.679 18.8028 121.917 19.3957 121.312 20.1458C120.707 20.896 120.404 21.8519 120.404 23.0135C120.404 23.4975 120.465 24.0177 120.586 24.5743C120.731 25.1309 120.973 25.6028 121.312 25.99C121.675 26.353 122.159 26.5345 122.764 26.5345C123.199 26.5345 123.659 26.4135 124.143 26.1715C124.627 25.9053 125.087 25.6028 125.522 25.264C125.982 24.9252 126.357 24.6106 126.648 24.3202ZM134.125 26.4619C134.125 26.5587 134.077 26.6676 133.98 26.7886C133.907 26.9096 133.835 27.0064 133.762 27.079C133.012 27.9502 132.044 28.3858 130.858 28.3858C129.818 28.3858 128.983 28.1559 128.354 27.6961C127.724 27.2363 127.24 26.5224 126.902 25.5544C126.127 26.3772 125.292 27.0306 124.397 27.5146C123.526 27.9986 122.497 28.2406 121.312 28.2406C120.465 28.2406 119.606 28.0591 118.734 27.6961C117.887 27.3089 117.173 26.7644 116.593 26.0626C116.036 25.3608 115.758 24.5501 115.758 23.6306C115.758 22.711 115.988 21.9003 116.448 21.1985C116.931 20.4725 117.536 19.8554 118.262 19.3473C118.988 18.8149 119.727 18.3793 120.477 18.0405C121.445 17.6291 122.437 17.3145 123.453 17.0967C124.47 16.8547 125.486 16.6127 126.502 16.3707V16.2255C126.502 15.7899 126.49 15.2091 126.466 14.4832C126.466 13.733 126.393 12.9949 126.248 12.2689C126.103 11.5187 125.861 10.8895 125.522 10.3813C125.184 9.84896 124.687 9.58276 124.034 9.58276C123.284 9.58276 122.606 9.80056 122.001 10.2361C121.42 10.6717 121.009 11.2525 120.767 11.9785C120.719 12.1963 120.682 12.4141 120.658 12.6319C120.634 12.8255 120.598 13.0312 120.549 13.249C120.501 13.6362 120.271 13.9024 119.86 14.0476C119.472 14.1686 119.109 14.2291 118.771 14.2291C118.359 14.2291 117.96 14.1444 117.573 13.975C117.186 13.7814 116.992 13.4305 116.992 12.9223C116.992 12.7287 117.016 12.5593 117.065 12.4141C117.137 12.2447 117.21 12.0753 117.282 11.9059C117.67 10.9863 118.25 10.3087 119.025 9.87316C119.799 9.43757 120.646 9.14717 121.566 9.00198C122.509 8.85678 123.405 8.78418 124.252 8.78418C126.236 8.78418 127.87 9.31657 129.152 10.3813C130.435 11.4461 131.076 13.0191 131.076 15.1002V20.5814C131.052 21.259 131.04 21.9608 131.04 22.6868C131.064 23.3886 131.1 24.0903 131.149 24.7921C131.197 25.2035 131.294 25.6028 131.439 25.99C131.584 26.353 131.911 26.5345 132.419 26.5345C132.758 26.5345 133.036 26.4619 133.254 26.3167C133.496 26.1715 133.714 26.0989 133.907 26.0989C134.004 26.0989 134.065 26.1473 134.089 26.2441C134.113 26.3409 134.125 26.4135 134.125 26.4619Z" fill="#F5F5F5"/>
<path d="M115.435 27.7324C115.435 28.1196 115.23 28.3132 114.818 28.3132C114.117 28.3132 113.415 28.2769 112.713 28.2043C112.011 28.1559 111.309 28.1317 110.608 28.1317C109.906 28.1317 109.192 28.1559 108.466 28.2043C107.764 28.2769 107.05 28.3132 106.324 28.3132C106.179 28.3132 106.058 28.2527 105.961 28.1317C105.889 27.9865 105.853 27.8534 105.853 27.7324C105.853 27.3694 106.07 27.1879 106.506 27.1879C106.699 27.1879 106.893 27.2 107.087 27.2242C107.304 27.2242 107.51 27.2242 107.704 27.2242C107.994 27.2242 108.164 27.1395 108.212 26.9701C108.26 26.7765 108.285 26.5587 108.285 26.3167V15.5359C108.285 14.8825 108.26 14.1686 108.212 13.3942C108.188 12.5956 108.043 11.8938 107.776 11.2888C107.559 10.7565 107.28 10.3935 106.941 10.1999C106.627 9.98208 106.191 9.87318 105.635 9.87318C104.957 9.87318 104.28 10.1394 103.602 10.6718C102.924 11.2041 102.38 11.7123 101.968 12.1963C102.065 12.6803 102.114 13.1764 102.114 13.6846C102.138 14.1686 102.15 14.6526 102.15 15.1366C102.15 16.9999 102.15 18.8633 102.15 20.7266C102.15 22.59 102.15 24.4534 102.15 26.3167C102.15 26.6071 102.198 26.837 102.295 27.0064C102.416 27.1758 102.634 27.2605 102.949 27.2605C103.118 27.2605 103.275 27.2484 103.42 27.2242C103.59 27.2 103.759 27.1879 103.929 27.1879C104.292 27.1879 104.473 27.3694 104.473 27.7324C104.473 28.1196 104.267 28.3132 103.856 28.3132C103.178 28.3132 102.489 28.2769 101.787 28.2043C101.109 28.1559 100.42 28.1317 99.7179 28.1317C99.0162 28.1317 98.3144 28.1559 97.6126 28.2043C96.9108 28.2769 96.209 28.3132 95.5072 28.3132C95.3378 28.3132 95.2168 28.2527 95.1442 28.1317C95.0716 27.9865 95.0353 27.8534 95.0353 27.7324C95.0353 27.4662 95.1442 27.3089 95.362 27.2605C95.5798 27.1879 95.8218 27.1637 96.088 27.1879C96.3784 27.2121 96.5962 27.2242 96.7414 27.2242C97.0802 27.2242 97.2859 27.1516 97.3585 27.0064C97.4311 26.837 97.4674 26.6071 97.4674 26.3167C97.4674 24.526 97.4553 22.7352 97.4311 20.9444C97.4311 19.1295 97.4311 17.3266 97.4311 15.5359C97.4311 14.8825 97.4069 14.1686 97.3585 13.3942C97.3343 12.5956 97.1891 11.8938 96.9229 11.2888C96.6809 10.7323 96.3905 10.3693 96.0517 10.1999C95.7129 10.0305 95.2531 9.94578 94.6723 9.94578C94.3578 9.94578 93.9706 10.1031 93.5108 10.4177C93.051 10.7081 92.6154 11.0469 92.204 11.434C91.7926 11.8212 91.478 12.1358 91.2602 12.3778C91.2602 14.701 91.2602 17.0241 91.2602 19.3473C91.2602 21.6704 91.2602 23.9936 91.2602 26.3167C91.2602 26.6071 91.3086 26.837 91.4054 27.0064C91.5264 27.1758 91.7442 27.2605 92.0588 27.2605C92.2282 27.2605 92.3976 27.2484 92.567 27.2242C92.7364 27.2 92.9058 27.1879 93.0752 27.1879C93.414 27.1879 93.5834 27.3694 93.5834 27.7324C93.5834 28.1196 93.3898 28.3132 93.0026 28.3132C92.3008 28.3132 91.599 28.289 90.8972 28.2406C90.2196 28.1922 89.53 28.168 88.8282 28.168C88.1022 28.168 87.3762 28.1922 86.6502 28.2406C85.9484 28.289 85.2346 28.3132 84.5086 28.3132C84.3392 28.3132 84.2061 28.2527 84.1093 28.1317C84.0367 27.9865 84.0004 27.8534 84.0004 27.7324C84.0004 27.3694 84.2061 27.1879 84.6175 27.1879C84.8111 27.1879 85.0047 27.2 85.1982 27.2242C85.416 27.2242 85.6338 27.2242 85.8516 27.2242C86.1904 27.2242 86.384 27.0548 86.4324 26.716C86.505 26.3772 86.5413 26.0868 86.5413 25.8448C86.5413 23.5459 86.5413 21.2469 86.5413 18.948C86.5413 16.649 86.5413 14.3501 86.5413 12.0511C86.5413 11.7849 86.505 11.4945 86.4324 11.1799C86.3598 10.8654 86.1299 10.7081 85.7427 10.7081C85.4765 10.7081 85.1983 10.7323 84.9079 10.7807C84.6417 10.8049 84.3755 10.817 84.1093 10.817C83.9641 10.817 83.8189 10.7807 83.6737 10.7081C83.5527 10.6113 83.4922 10.4782 83.4922 10.3088C83.4922 10.1394 83.5406 10.0184 83.6374 9.94578C83.7584 9.87318 83.8673 9.82478 83.9641 9.80058C84.2787 9.70378 84.6054 9.64328 84.9442 9.61908C85.2829 9.59488 85.6096 9.55858 85.9242 9.51019C86.2146 9.43759 86.626 9.32869 87.1584 9.18349C87.715 9.0383 88.2595 8.9052 88.7919 8.7842C89.3243 8.639 89.6873 8.56641 89.8808 8.56641C90.1712 8.56641 90.3769 8.6995 90.4979 8.9657C90.6673 9.23189 90.7883 9.54648 90.8609 9.90948C90.9335 10.2483 91.0182 10.575 91.115 10.8896C91.9862 10.1636 92.8574 9.61908 93.7286 9.25609C94.5998 8.8689 95.604 8.6753 96.7414 8.6753C97.661 8.6753 98.5564 8.8568 99.4275 9.21979C100.323 9.58278 101.001 10.1757 101.46 10.9985C102.307 10.2483 103.191 9.65538 104.11 9.21979C105.03 8.7842 106.046 8.56641 107.159 8.56641C108.829 8.56641 110.075 8.7963 110.898 9.25609C111.721 9.71588 112.265 10.4298 112.532 11.3977C112.822 12.3415 112.967 13.5878 112.967 15.1366C112.967 16.9999 112.967 18.8633 112.967 20.7266C112.967 22.59 112.967 24.4534 112.967 26.3167C112.967 26.7039 113.064 26.958 113.258 27.079C113.475 27.2 113.729 27.2484 114.02 27.2242C114.334 27.2 114.625 27.1879 114.891 27.1879C115.254 27.1879 115.435 27.3694 115.435 27.7324Z" fill="#F5F5F5"/>
<path d="M83.4941 27.7324C83.4941 28.1196 83.2884 28.3132 82.877 28.3132C82.1752 28.3132 81.4734 28.2769 80.7716 28.2043C80.0699 28.1559 79.3681 28.1317 78.6663 28.1317C77.9645 28.1317 77.2506 28.1559 76.5246 28.2043C75.8229 28.2769 75.109 28.3132 74.383 28.3132C74.2378 28.3132 74.1168 28.2527 74.02 28.1317C73.9474 27.9865 73.9111 27.8534 73.9111 27.7324C73.9111 27.3694 74.1289 27.1879 74.5645 27.1879C74.7581 27.1879 74.9517 27.2 75.1453 27.2242C75.3631 27.2242 75.5688 27.2242 75.7624 27.2242C76.0528 27.2242 76.2221 27.1395 76.2705 26.9701C76.3189 26.7765 76.3431 26.5587 76.3431 26.3167V15.5359C76.3431 14.8825 76.3189 14.1686 76.2705 13.3942C76.2463 12.5956 76.1012 11.8938 75.835 11.2888C75.6172 10.7565 75.3389 10.3935 75.0001 10.1999C74.6855 9.98208 74.2499 9.87318 73.6933 9.87318C73.0157 9.87318 72.3381 10.1394 71.6606 10.6718C70.983 11.2041 70.4385 11.7123 70.0271 12.1963C70.1239 12.6803 70.1723 13.1764 70.1723 13.6846C70.1965 14.1686 70.2086 14.6526 70.2086 15.1366C70.2086 16.9999 70.2086 18.8633 70.2086 20.7266C70.2086 22.59 70.2086 24.4534 70.2086 26.3167C70.2086 26.6071 70.257 26.837 70.3538 27.0064C70.4748 27.1758 70.6926 27.2605 71.0072 27.2605C71.1766 27.2605 71.3339 27.2484 71.479 27.2242C71.6484 27.2 71.8178 27.1879 71.9872 27.1879C72.3502 27.1879 72.5317 27.3694 72.5317 27.7324C72.5317 28.1196 72.326 28.3132 71.9146 28.3132C71.2371 28.3132 70.5474 28.2769 69.8456 28.2043C69.168 28.1559 68.4783 28.1317 67.7765 28.1317C67.0747 28.1317 66.373 28.1559 65.6712 28.2043C64.9694 28.2769 64.2676 28.3132 63.5658 28.3132C63.3964 28.3132 63.2754 28.2527 63.2028 28.1317C63.1302 27.9865 63.0939 27.8534 63.0939 27.7324C63.0939 27.4662 63.2028 27.3089 63.4206 27.2605C63.6384 27.1879 63.8804 27.1637 64.1466 27.1879C64.437 27.2121 64.6548 27.2242 64.8 27.2242C65.1388 27.2242 65.3445 27.1516 65.4171 27.0064C65.4897 26.837 65.526 26.6071 65.526 26.3167C65.526 24.526 65.5139 22.7352 65.4897 20.9444C65.4897 19.1295 65.4897 17.3266 65.4897 15.5359C65.4897 14.8825 65.4655 14.1686 65.4171 13.3942C65.3929 12.5956 65.2477 11.8938 64.9815 11.2888C64.7395 10.7323 64.4491 10.3693 64.1103 10.1999C63.7715 10.0305 63.3117 9.94578 62.7309 9.94578C62.4163 9.94578 62.0292 10.1031 61.5694 10.4177C61.1096 10.7081 60.674 11.0469 60.2626 11.434C59.8512 11.8212 59.5366 12.1358 59.3188 12.3778C59.3188 14.701 59.3188 17.0241 59.3188 19.3473C59.3188 21.6704 59.3188 23.9936 59.3188 26.3167C59.3188 26.6071 59.3672 26.837 59.464 27.0064C59.585 27.1758 59.8028 27.2605 60.1174 27.2605C60.2868 27.2605 60.4562 27.2484 60.6256 27.2242C60.795 27.2 60.9644 27.1879 61.1338 27.1879C61.4726 27.1879 61.642 27.3694 61.642 27.7324C61.642 28.1196 61.4484 28.3132 61.0612 28.3132C60.3594 28.3132 59.6576 28.289 58.9558 28.2406C58.2782 28.1922 57.5886 28.168 56.8868 28.168C56.1608 28.168 55.4348 28.1922 54.7088 28.2406C54.007 28.289 53.2931 28.3132 52.5672 28.3132C52.3978 28.3132 52.2647 28.2527 52.1679 28.1317C52.0953 27.9865 52.059 27.8534 52.059 27.7324C52.059 27.3694 52.2647 27.1879 52.6761 27.1879C52.8697 27.1879 53.0633 27.2 53.2568 27.2242C53.4746 27.2242 53.6924 27.2242 53.9102 27.2242C54.249 27.2242 54.4426 27.0548 54.491 26.716C54.5636 26.3772 54.5999 26.0868 54.5999 25.8448C54.5999 23.5459 54.5999 21.2469 54.5999 18.948C54.5999 16.649 54.5999 14.3501 54.5999 12.0511C54.5999 11.7849 54.5636 11.4945 54.491 11.1799C54.4184 10.8654 54.1885 10.7081 53.8013 10.7081C53.5351 10.7081 53.2568 10.7323 52.9665 10.7807C52.7003 10.8049 52.4341 10.817 52.1679 10.817C52.0227 10.817 51.8775 10.7807 51.7323 10.7081C51.6113 10.6113 51.5508 10.4782 51.5508 10.3088C51.5508 10.1394 51.5992 10.0184 51.696 9.94578C51.817 9.87318 51.9259 9.82478 52.0227 9.80058C52.3373 9.70378 52.664 9.64328 53.0028 9.61908C53.3415 9.59488 53.6682 9.55858 53.9828 9.51019C54.2732 9.43759 54.6846 9.32869 55.217 9.18349C55.7736 9.0383 56.3181 8.9052 56.8505 8.7842C57.3829 8.639 57.7458 8.56641 57.9394 8.56641C58.2298 8.56641 58.4355 8.6995 58.5565 8.9657C58.7259 9.23189 58.8469 9.54648 58.9195 9.90948C58.9921 10.2483 59.0768 10.575 59.1736 10.8896C60.0448 10.1636 60.916 9.61908 61.7872 9.25609C62.6583 8.8689 63.6626 8.6753 64.8 8.6753C65.7196 8.6753 66.615 8.8568 67.4861 9.21979C68.3815 9.58278 69.0591 10.1757 69.5189 10.9985C70.3659 10.2483 71.2492 9.65538 72.1687 9.21979C73.0883 8.7842 74.1047 8.56641 75.2179 8.56641C76.8876 8.56641 78.1339 8.7963 78.9567 9.25609C79.7795 9.71588 80.324 10.4298 80.5902 11.3977C80.8805 12.3415 81.0257 13.5878 81.0257 15.1366C81.0257 16.9999 81.0257 18.8633 81.0257 20.7266C81.0257 22.59 81.0257 24.4534 81.0257 26.3167C81.0257 26.7039 81.1225 26.958 81.3161 27.079C81.5339 27.2 81.788 27.2484 82.0784 27.2242C82.393 27.2 82.6834 27.1879 82.9496 27.1879C83.3126 27.1879 83.4941 27.3694 83.4941 27.7324Z" fill="#F5F5F5"/>
<path d="M44.4757 24.3202C44.4031 23.1829 44.3547 22.0455 44.3305 20.9081C44.3063 19.7465 44.3063 18.585 44.3305 17.4234C43.3383 17.5928 42.3703 17.9074 41.4266 18.3672C40.507 18.8028 39.7447 19.3957 39.1397 20.1458C38.5347 20.896 38.2322 21.8519 38.2322 23.0135C38.2322 23.4975 38.2927 24.0177 38.4137 24.5743C38.5589 25.1309 38.8009 25.6028 39.1397 25.99C39.5027 26.353 39.9867 26.5345 40.5917 26.5345C41.0273 26.5345 41.4871 26.4135 41.9711 26.1715C42.4551 25.9053 42.9148 25.6028 43.3504 25.264C43.8102 24.9252 44.1853 24.6106 44.4757 24.3202ZM51.9533 26.4619C51.9533 26.5587 51.9049 26.6676 51.8081 26.7886C51.7355 26.9096 51.6629 27.0064 51.5904 27.079C50.8402 27.9502 49.8722 28.3858 48.6864 28.3858C47.6458 28.3858 46.811 28.1559 46.1818 27.6961C45.5526 27.2363 45.0686 26.5224 44.7298 25.5544C43.9554 26.3772 43.1205 27.0306 42.2252 27.5146C41.354 27.9986 40.3255 28.2406 39.1397 28.2406C38.2927 28.2406 37.4337 28.0591 36.5625 27.6961C35.7155 27.3089 35.0016 26.7644 34.4208 26.0626C33.8642 25.3608 33.5859 24.5501 33.5859 23.6306C33.5859 22.711 33.8158 21.9003 34.2756 21.1985C34.7596 20.4725 35.3646 19.8554 36.0906 19.3473C36.8166 18.8149 37.5547 18.3793 38.3048 18.0405C39.2728 17.6291 40.265 17.3145 41.2814 17.0967C42.2977 16.8547 43.3141 16.6127 44.3305 16.3707V16.2255C44.3305 15.7899 44.3184 15.2091 44.2942 14.4832C44.2942 13.733 44.2216 12.9949 44.0764 12.2689C43.9312 11.5187 43.6892 10.8895 43.3504 10.3813C43.0116 9.84896 42.5155 9.58276 41.8622 9.58276C41.112 9.58276 40.4344 9.80056 39.8294 10.2361C39.2486 10.6717 38.8372 11.2525 38.5952 11.9785C38.5468 12.1963 38.5105 12.4141 38.4863 12.6319C38.4621 12.8255 38.4258 13.0312 38.3774 13.249C38.329 13.6362 38.0991 13.9024 37.6878 14.0476C37.3006 14.1686 36.9376 14.2291 36.5988 14.2291C36.1874 14.2291 35.7881 14.1444 35.4009 13.975C35.0137 13.7814 34.8201 13.4305 34.8201 12.9223C34.8201 12.7287 34.8443 12.5593 34.8927 12.4141C34.9653 12.2447 35.0379 12.0753 35.1105 11.9059C35.4977 10.9863 36.0785 10.3087 36.8529 9.87316C37.6273 9.43757 38.4742 9.14717 39.3938 9.00198C40.3376 8.85678 41.233 8.78418 42.08 8.78418C44.0643 8.78418 45.6978 9.31657 46.9803 10.3813C48.2629 11.4461 48.9042 13.0191 48.9042 15.1002V20.5814C48.88 21.259 48.8679 21.9608 48.8679 22.6868C48.8921 23.3886 48.9284 24.0903 48.9768 24.7921C49.0252 25.2035 49.122 25.6028 49.2672 25.99C49.4124 26.353 49.7391 26.5345 50.2473 26.5345C50.5861 26.5345 50.8644 26.4619 51.0822 26.3167C51.3242 26.1715 51.542 26.0989 51.7355 26.0989C51.8323 26.0989 51.8928 26.1473 51.917 26.2441C51.9412 26.3409 51.9533 26.4135 51.9533 26.4619Z" fill="#F5F5F5"/>
<path d="M33.1049 27.5147C33.1049 28.0229 32.8992 28.2769 32.4878 28.2769C31.6166 28.2769 30.7454 28.2648 29.8743 28.2406C29.0273 28.2164 28.1803 28.2043 27.3333 28.2043C26.5105 28.2043 25.6877 28.2164 24.865 28.2406C24.0422 28.289 23.2194 28.3132 22.3966 28.3132C22.1546 28.3132 21.9852 28.2406 21.8884 28.0954C21.7916 27.9261 21.7432 27.7446 21.7432 27.551C21.7432 27.3574 21.8158 27.2122 21.961 27.1154C22.1304 26.9944 22.2998 26.9339 22.4692 26.9339C22.687 26.9339 22.9048 26.946 23.1226 26.9702C23.3404 26.9944 23.5582 27.0065 23.776 27.0065C23.8244 27.0065 23.8849 27.0065 23.9575 27.0065C24.0301 27.0065 24.0906 27.0065 24.139 27.0065C24.5504 26.9581 24.7682 26.7282 24.7924 26.3168C24.8408 25.8812 24.865 25.5182 24.865 25.2278V6.35222C23.4856 9.78855 22.082 13.2128 20.6543 16.6249C19.2507 20.0128 17.8713 23.437 16.5161 26.8976H13.6848C12.3054 23.3161 10.8777 19.7587 9.4015 16.2256C7.94953 12.6925 6.52176 9.13516 5.11819 5.55364C5.11819 8.86897 5.14239 12.1843 5.19079 15.4996C5.23919 18.7908 5.26339 22.094 5.26339 25.4093C5.26339 25.6997 5.27549 26.0506 5.29969 26.462C5.34808 26.8492 5.57798 27.0428 5.98937 27.0428C6.30396 27.0428 6.60646 27.0307 6.89685 27.0065C7.18724 26.9823 7.48974 26.9702 7.80433 26.9702C7.97373 26.9702 8.11892 27.0428 8.23992 27.188C8.36092 27.309 8.42142 27.4542 8.42142 27.6236C8.42142 27.7446 8.37302 27.8898 8.27622 28.0591C8.17942 28.2043 8.05843 28.2769 7.91323 28.2769C7.47764 28.2769 7.04205 28.2648 6.60646 28.2406C6.17087 28.2164 5.73528 28.2043 5.29969 28.2043C4.5253 28.2043 3.73882 28.2164 2.94024 28.2406C2.14165 28.2648 1.35517 28.2769 0.580787 28.2769C0.338793 28.2769 0.181496 28.2164 0.108898 28.0954C0.0362992 27.9503 0 27.7688 0 27.551C0 27.3574 0.0725985 27.2122 0.217795 27.1154C0.387192 27.0186 0.544488 26.9702 0.689685 26.9702C0.90748 26.9702 1.12528 26.9823 1.34307 27.0065C1.58507 27.0307 1.81496 27.0428 2.03276 27.0428C2.44415 27.0428 2.73454 26.9944 2.90394 26.8976C3.09753 26.7766 3.19433 26.4862 3.19433 26.0264C3.19433 22.3481 3.20643 18.6698 3.23063 14.9914C3.27903 11.2889 3.30323 7.59849 3.30323 3.92017C3.30323 3.53298 3.23063 3.25469 3.08543 3.08529C2.96444 2.8917 2.69824 2.7949 2.28685 2.7949C2.04486 2.7949 1.80286 2.807 1.56087 2.8312C1.31887 2.8554 1.07688 2.8675 0.834882 2.8675C0.641286 2.8675 0.47189 2.7949 0.326693 2.6497C0.181496 2.5045 0.108898 2.33511 0.108898 2.14151C0.108898 1.68172 0.350892 1.45183 0.834882 1.45183C1.41567 1.45183 1.99646 1.46393 2.57724 1.48813C3.18223 1.51233 3.77512 1.52443 4.35591 1.52443C5.05769 1.52443 5.75948 1.52443 6.46126 1.52443C7.18724 1.52443 7.90113 1.48813 8.60292 1.41553L16.6976 21.4527C18.0044 18.1374 19.3717 14.8462 20.7994 11.5793C22.2514 8.28818 23.5219 4.93655 24.6109 1.52443C25.1675 1.54862 25.724 1.57282 26.2806 1.59702C26.8614 1.59702 27.4422 1.59702 28.023 1.59702C28.7732 1.59702 29.5234 1.57282 30.2735 1.52443C31.0479 1.47603 31.8102 1.45183 32.5604 1.45183C32.754 1.45183 32.8871 1.53652 32.9597 1.70592C33.0323 1.85112 33.0686 1.99632 33.0686 2.14151C33.0686 2.28671 33.0323 2.45611 32.9597 2.6497C32.8871 2.8191 32.754 2.9038 32.5604 2.9038C32.2216 2.9038 31.8707 2.9038 31.5077 2.9038C31.1689 2.8796 30.8301 2.8675 30.4913 2.8675C30.2493 2.8675 30.0678 2.97639 29.9469 3.19419C29.8501 3.38779 29.8017 3.59348 29.8017 3.81128C29.8017 5.21485 29.7896 6.64261 29.7654 8.09458C29.7654 9.52235 29.7654 10.9501 29.7654 12.3779C29.7654 14.5074 29.7654 16.637 29.7654 18.7666C29.7896 20.8961 29.8017 23.0257 29.8017 25.1552C29.8017 25.373 29.8138 25.6271 29.838 25.9175C29.8864 26.2079 29.9711 26.4741 30.0921 26.7161C30.2372 26.9339 30.455 27.0428 30.7454 27.0428C31.0358 27.0428 31.3262 27.0307 31.6166 27.0065C31.907 26.9823 32.2095 26.9702 32.5241 26.9702C32.6693 26.9702 32.8024 27.0186 32.9234 27.1154C33.0444 27.2122 33.1049 27.3453 33.1049 27.5147Z" fill="#F5F5F5"/>
<path d="M128.278 37.5203C128.278 37.9758 128.437 38.3516 128.756 38.6477C129.075 38.9324 129.553 39.257 130.191 39.6214C130.658 39.8833 131.028 40.1111 131.301 40.3047C131.575 40.4983 131.808 40.7431 132.002 41.0392C132.195 41.3353 132.292 41.6769 132.292 42.0641C132.292 42.7702 132.008 43.3282 131.438 43.7382C130.88 44.1367 130.129 44.336 129.183 44.336C128.375 44.336 127.72 44.1823 127.219 43.8748C126.729 43.5673 126.484 43.1517 126.484 42.6278C126.484 42.2862 126.598 42.0186 126.826 41.825C127.065 41.62 127.361 41.5175 127.714 41.5175C127.988 41.5175 128.25 41.5858 128.5 41.7225C128.147 41.9047 127.971 42.2634 127.971 42.7987C127.971 43.1175 128.084 43.3908 128.312 43.6186C128.551 43.835 128.87 43.9431 129.269 43.9431C129.679 43.9431 129.998 43.8293 130.225 43.6015C130.464 43.3737 130.584 43.089 130.584 42.7474C130.584 42.3488 130.436 42.0243 130.14 41.7737C129.855 41.5118 129.417 41.21 128.825 40.8684C128.358 40.6179 127.971 40.3844 127.663 40.168C127.367 39.9517 127.116 39.684 126.911 39.3652C126.706 39.0463 126.604 38.6705 126.604 38.2378C126.604 37.5886 126.877 37.0648 127.424 36.6662C127.982 36.2563 128.705 36.0513 129.593 36.0513C130.356 36.0513 130.977 36.1993 131.455 36.4954C131.934 36.7801 132.173 37.1616 132.173 37.6399C132.173 37.9474 132.07 38.1922 131.865 38.3744C131.66 38.5452 131.381 38.6306 131.028 38.6306C130.778 38.6306 130.516 38.568 130.242 38.4427C130.39 38.3289 130.504 38.1865 130.584 38.0157C130.664 37.8449 130.704 37.6684 130.704 37.4862C130.704 37.2015 130.601 36.9623 130.396 36.7687C130.191 36.5637 129.889 36.4612 129.491 36.4612C129.104 36.4612 128.802 36.5637 128.585 36.7687C128.38 36.9737 128.278 37.2242 128.278 37.5203Z" fill="#F5F5F5"/>
<path d="M126.085 36.5814C125.903 36.8433 125.772 37.1109 125.693 37.3842C125.624 37.6575 125.59 38.0106 125.59 38.4433V43.2092C125.59 43.4483 125.641 43.6476 125.744 43.807L125.898 44.012L125.744 44.1829H123.967L120.175 37.6405V41.9451C120.175 42.4006 120.209 42.765 120.278 43.0384C120.357 43.3003 120.488 43.5565 120.67 43.807L120.824 44.012L120.67 44.1829H118.791L118.672 43.8754C118.968 43.7957 119.173 43.7216 119.287 43.6533C119.412 43.585 119.498 43.4882 119.543 43.3629C119.589 43.2376 119.611 43.0384 119.611 42.765V38.2554C119.611 37.7543 119.566 37.3899 119.475 37.1622C119.384 36.9344 119.184 36.6896 118.877 36.4276L119.014 36.2056H121.234L125.043 42.7992V37.6234C125.043 37.2817 124.969 37.0426 124.821 36.9059C124.685 36.7693 124.394 36.6383 123.95 36.513L124.053 36.2056H126.085L126.239 36.3935L126.085 36.5814Z" fill="#F5F5F5"/>
<path d="M118.095 42.645C118.209 42.9638 118.335 43.2201 118.471 43.4137C118.608 43.5959 118.819 43.7952 119.103 44.0115L118.949 44.1823H115.858L115.755 43.8749L116.011 43.8065C116.182 43.7496 116.302 43.6813 116.37 43.6016C116.45 43.5105 116.49 43.3909 116.49 43.2428C116.49 43.1517 116.427 42.9183 116.302 42.5425L115.96 41.5346H113.312L113.176 41.9617C113.005 42.4741 112.92 42.8613 112.92 43.1233C112.92 43.3738 112.965 43.6016 113.056 43.8065L113.176 44.0115L113.022 44.1823H111.143L111.023 43.8749L111.28 43.8065C111.553 43.7268 111.758 43.6186 111.895 43.482C112.031 43.3339 112.162 43.0777 112.288 42.7133L114.03 37.6912C114.11 37.4065 114.149 37.2072 114.149 37.0933C114.149 36.8428 113.967 36.6663 113.603 36.5638L113.415 36.5125L113.534 36.2051H115.858L118.095 42.645ZM115.789 41.0563L114.628 37.5887L113.483 41.0563H115.789ZM113.381 35.0093C113.381 34.5424 113.478 34.2179 113.671 34.0356H116.814C116.814 34.2292 116.791 34.4171 116.746 34.5993C116.7 34.7816 116.626 34.9182 116.524 35.0093H113.381Z" fill="#F5F5F5"/>
<path d="M112.028 43.6015C111.618 44.0912 111.083 44.336 110.423 44.336C110.013 44.336 109.688 44.2449 109.449 44.0627C109.221 43.8691 109.022 43.5446 108.851 43.089L108.356 41.5858C108.242 41.2784 108.139 41.0563 108.048 40.9196C107.957 40.7716 107.815 40.6577 107.621 40.578L107.331 40.4243L107.365 40.2534C107.456 40.2648 107.576 40.2705 107.724 40.2705C107.86 40.2705 107.957 40.2648 108.014 40.2534C108.435 40.1851 108.766 39.9915 109.005 39.6727C109.244 39.3538 109.363 38.9438 109.363 38.4427C109.363 37.8392 109.221 37.3609 108.936 37.0079C108.652 36.6434 108.276 36.4612 107.809 36.4612C107.297 36.4612 107.04 36.7004 107.04 37.1787V41.9446C107.04 42.3887 107.074 42.7474 107.143 43.0207C107.223 43.2826 107.359 43.5446 107.553 43.8065L107.689 44.0115L107.553 44.1823H104.581L104.461 43.8748C104.746 43.7951 104.951 43.7211 105.076 43.6528C105.201 43.573 105.287 43.4705 105.332 43.3453C105.378 43.22 105.4 43.0264 105.4 42.7645V38.2207C105.4 37.8221 105.366 37.5203 105.298 37.3153C105.241 37.099 105.099 36.9225 104.871 36.7858L104.666 36.6662L104.734 36.4442C105.087 36.3303 105.537 36.2392 106.084 36.1708C106.642 36.0911 107.137 36.0513 107.57 36.0513C108.652 36.0513 109.506 36.2676 110.132 36.7004C110.758 37.1331 111.072 37.7253 111.072 38.4769C111.072 39.0008 110.901 39.4677 110.559 39.8776C110.229 40.2762 109.802 40.5438 109.278 40.6805C109.688 40.8627 109.973 41.1702 110.132 41.6029L110.73 43.2769C110.821 43.5503 110.998 43.6869 111.26 43.6869C111.465 43.6869 111.675 43.5958 111.892 43.4136L112.028 43.6015Z" fill="#F5F5F5"/>
<path d="M100.564 44.336C99.3793 44.336 98.4398 43.9659 97.7451 43.2257C97.0505 42.4855 96.7031 41.4776 96.7031 40.2022C96.7031 38.9267 97.0505 37.9189 97.7451 37.1787C98.4398 36.4271 99.3793 36.0513 100.564 36.0513C101.748 36.0513 102.688 36.4271 103.382 37.1787C104.088 37.9189 104.441 38.9267 104.441 40.2022C104.441 41.4663 104.088 42.4741 103.382 43.2257C102.688 43.9659 101.748 44.336 100.564 44.336ZM100.512 43.9431C100.934 43.9431 101.304 43.7894 101.623 43.4819C101.953 43.1631 102.209 42.7246 102.391 42.1666C102.574 41.6086 102.665 40.9652 102.665 40.2364C102.665 39.5075 102.574 38.8527 102.391 38.2719C102.221 37.6911 101.976 37.2413 101.657 36.9225C101.349 36.5922 100.996 36.4271 100.598 36.4271C100.176 36.4271 99.8007 36.5922 99.4704 36.9225C99.1402 37.2413 98.8839 37.6968 98.7017 38.289C98.5195 38.8698 98.4284 39.536 98.4284 40.2876C98.4284 41.3922 98.6163 42.2805 98.9921 42.9524C99.3679 43.6129 99.8747 43.9431 100.512 43.9431Z" fill="#F5F5F5"/>
<path d="M94.3893 42.7649C94.3893 43.0268 94.412 43.2261 94.4576 43.3627C94.5145 43.488 94.6056 43.5848 94.7309 43.6531C94.8562 43.7215 95.0612 43.7955 95.3459 43.8752L95.2263 44.1827H92.254L92.1174 44.0119L92.254 43.8069C92.4476 43.545 92.5786 43.283 92.6469 43.0211C92.7266 42.7478 92.7608 42.3891 92.7494 41.9449V37.3499C92.7494 37.0652 92.7209 36.8773 92.664 36.7862C92.6184 36.6837 92.5216 36.6324 92.3736 36.6324H92.1857C91.7985 36.6324 91.5081 36.752 91.3145 36.9912C91.1209 37.2189 90.9216 37.6346 90.7166 38.2381L90.375 38.1186V35.9833L90.5458 35.8296L90.7508 35.9833C90.9672 36.1314 91.3885 36.2054 92.0149 36.2054H95.1409C95.7672 36.2054 96.1886 36.1314 96.4049 35.9833L96.6099 35.8296L96.7978 35.9833V38.1186L96.4391 38.2381C96.2227 37.6118 96.0177 37.1905 95.8242 36.9741C95.6419 36.7463 95.3629 36.6324 94.9871 36.6324H94.7651C94.617 36.6324 94.5145 36.6837 94.4576 36.7862C94.412 36.8773 94.3893 37.0652 94.3893 37.3499V42.7649Z" fill="#F5F5F5"/>
<path d="M86.3835 37.5203C86.3835 37.9758 86.5429 38.3516 86.8617 38.6477C87.1806 38.9324 87.6589 39.257 88.2966 39.6214C88.7635 39.8833 89.1337 40.1111 89.407 40.3047C89.6803 40.4983 89.9137 40.7431 90.1073 41.0392C90.3009 41.3353 90.3977 41.6769 90.3977 42.0641C90.3977 42.7702 90.113 43.3282 89.5436 43.7382C88.9856 44.1367 88.234 44.336 87.2888 44.336C86.4802 44.336 85.8254 44.1823 85.3244 43.8748C84.8347 43.5673 84.5898 43.1517 84.5898 42.6278C84.5898 42.2862 84.7037 42.0186 84.9315 41.825C85.1706 41.62 85.4667 41.5175 85.8197 41.5175C86.0931 41.5175 86.355 41.5858 86.6055 41.7225C86.2525 41.9047 86.076 42.2634 86.076 42.7987C86.076 43.1175 86.1899 43.3908 86.4176 43.6186C86.6568 43.835 86.9756 43.9431 87.3742 43.9431C87.7842 43.9431 88.103 43.8293 88.3308 43.6015C88.5699 43.3737 88.6895 43.089 88.6895 42.7474C88.6895 42.3488 88.5415 42.0243 88.2454 41.7737C87.9607 41.5118 87.5222 41.21 86.9301 40.8684C86.4632 40.6179 86.076 40.3844 85.7685 40.168C85.4724 39.9517 85.2219 39.684 85.0169 39.3652C84.8119 39.0463 84.7094 38.6705 84.7094 38.2378C84.7094 37.5886 84.9827 37.0648 85.5294 36.6662C86.0874 36.2563 86.8105 36.0513 87.6988 36.0513C88.4618 36.0513 89.0824 36.1993 89.5607 36.4954C90.039 36.7801 90.2781 37.1616 90.2781 37.6399C90.2781 37.9474 90.1757 38.1922 89.9707 38.3744C89.7657 38.5452 89.4867 38.6306 89.1337 38.6306C88.8831 38.6306 88.6212 38.568 88.3479 38.4427C88.4959 38.3289 88.6098 38.1865 88.6895 38.0157C88.7692 37.8449 88.8091 37.6684 88.8091 37.4862C88.8091 37.2015 88.7066 36.9623 88.5016 36.7687C88.2966 36.5637 87.9949 36.4612 87.5963 36.4612C87.2091 36.4612 86.9073 36.5637 86.6909 36.7687C86.4859 36.9737 86.3835 37.2242 86.3835 37.5203Z" fill="#F5F5F5"/>
<path d="M79.209 38.4431C79.209 37.9876 79.1749 37.6289 79.1065 37.367C79.0382 37.105 78.9073 36.8431 78.7137 36.5812L78.577 36.3933L78.7137 36.2054H82.4888C83.1151 36.2054 83.5365 36.1314 83.7528 35.9833L83.9578 35.8296L84.1287 35.9833V38.1186L83.787 38.2381C83.582 37.6232 83.377 37.2018 83.1721 36.9741C82.9785 36.7463 82.6995 36.6324 82.335 36.6324H81.5664C81.2703 36.6324 81.0767 36.6894 80.9856 36.8033C80.8945 36.9058 80.8489 37.1335 80.8489 37.4865V39.9122H82.0788C82.4205 39.9122 82.671 39.878 82.8304 39.8097C83.0012 39.7414 83.1265 39.6047 83.2062 39.3997L83.2916 39.1606L83.5137 39.2972V41.2104L83.1379 41.3471L83.0696 40.9713C83.024 40.7321 82.8987 40.567 82.6938 40.4759C82.4888 40.3848 82.1585 40.3392 81.703 40.3392H80.8489V42.9186C80.8489 43.2603 80.9002 43.488 81.0026 43.6019C81.1051 43.7044 81.3329 43.7556 81.6859 43.7556H82.5229C82.8646 43.7556 83.1322 43.6361 83.3258 43.3969C83.5308 43.1578 83.7244 42.7421 83.9066 42.1499L84.2653 42.2695V44.3193L84.0774 44.4731C83.918 44.3592 83.7358 44.2795 83.5308 44.2339C83.3258 44.1998 83.0411 44.1827 82.6767 44.1827H78.3891L78.2695 43.8752C78.5542 43.7955 78.7592 43.7215 78.8845 43.6531C79.0098 43.5734 79.0952 43.4709 79.1407 43.3457C79.1863 43.2204 79.209 43.0268 79.209 42.7649V38.4431Z" fill="#F5F5F5"/>
<path d="M78.7587 43.6015C78.3488 44.0912 77.8135 44.336 77.153 44.336C76.7431 44.336 76.4185 44.2449 76.1793 44.0627C75.9516 43.8691 75.7523 43.5446 75.5815 43.089L75.0861 41.5858C74.9722 41.2784 74.8697 41.0563 74.7786 40.9196C74.6875 40.7716 74.5452 40.6577 74.3516 40.578L74.0612 40.4243L74.0953 40.2534C74.1864 40.2648 74.306 40.2705 74.4541 40.2705C74.5907 40.2705 74.6875 40.2648 74.7445 40.2534C75.1658 40.1851 75.4961 39.9915 75.7352 39.6727C75.9744 39.3538 76.0939 38.9438 76.0939 38.4427C76.0939 37.8392 75.9516 37.3609 75.6669 37.0079C75.3822 36.6434 75.0064 36.4612 74.5395 36.4612C74.027 36.4612 73.7708 36.7004 73.7708 37.1787V41.9446C73.7708 42.3887 73.8049 42.7474 73.8733 43.0207C73.953 43.2826 74.0896 43.5446 74.2832 43.8065L74.4199 44.0115L74.2832 44.1823H71.311L71.1914 43.8748C71.4761 43.7951 71.6811 43.7211 71.8064 43.6528C71.9316 43.573 72.017 43.4705 72.0626 43.3453C72.1081 43.22 72.1309 43.0264 72.1309 42.7645V38.2207C72.1309 37.8221 72.0968 37.5203 72.0284 37.3153C71.9715 37.099 71.8291 36.9225 71.6014 36.7858L71.3964 36.6662L71.4647 36.4442C71.8177 36.3303 72.2676 36.2392 72.8142 36.1708C73.3722 36.0911 73.8676 36.0513 74.3003 36.0513C75.3822 36.0513 76.2363 36.2676 76.8626 36.7004C77.489 37.1331 77.8021 37.7253 77.8021 38.4769C77.8021 39.0008 77.6313 39.4677 77.2897 39.8776C76.9594 40.2762 76.5324 40.5438 76.0085 40.6805C76.4185 40.8627 76.7032 41.1702 76.8626 41.6029L77.4605 43.2769C77.5516 43.5503 77.7281 43.6869 77.99 43.6869C78.195 43.6869 78.4057 43.5958 78.6221 43.4136L78.7587 43.6015Z" fill="#F5F5F5"/>
</svg>
