<svg width="36" height="26" viewBox="0 0 36 26" fill="none" xmlns="http://www.w3.org/2000/svg">
<path d="M32 0H4C2.93913 0 1.92172 0.421427 1.17157 1.17157C0.421427 1.92172 0 2.93913 0 4L0 10H36V4C36 2.93913 35.5786 1.92172 34.8284 1.17157C34.0783 0.421427 33.0609 0 32 0ZM32 26H4C2.93913 26 1.92172 25.5786 1.17157 24.8284C0.421427 24.0783 0 23.0609 0 22V16H36V22C36 23.0609 35.5786 24.0783 34.8284 24.8284C34.0783 25.5786 33.0609 26 32 26Z" fill="#9E3039"/>
<path d="M0 10H36V16H0V10Z" fill="#EEEEEE"/>
</svg>
